<?xml version="1.0" standalone="no"?>
<!DOCTYPE svg PUBLIC "-//W3C//DTD SVG 20010904//EN"
 "http://www.w3.org/TR/2001/REC-SVG-20010904/DTD/svg10.dtd">
<svg version="1.0" xmlns="http://www.w3.org/2000/svg"
 width="640.000000pt" height="640.000000pt" viewBox="0 0 640.000000 640.000000"
 preserveAspectRatio="xMidYMid meet">
<metadata>
Created by potrace 1.11, written by Peter Selinger 2001-2013
</metadata>
<g transform="translate(0.000000,640.000000) scale(0.100000,-0.100000)"
fill="#000000" stroke="none">
<path d="M0 3200 l0 -3200 3200 0 3200 0 0 3200 0 3200 -3200 0 -3200 0 0
-3200z m3990 2910 l0 -100 200 0 200 0 0 -100 0 -100 100 0 100 0 0 -100 0
-100 100 0 100 0 0 -100 0 -100 100 0 100 0 0 -200 0 -200 100 0 100 0 0 -500
0 -500 100 0 100 0 0 -200 0 -200 -200 0 -200 0 0 -200 0 -200 -100 0 -100 0
0 -200 0 -200 100 0 100 0 0 -100 0 -100 200 0 200 0 0 100 0 100 100 0 100 0
0 -100 0 -100 -100 0 -100 0 0 -200 0 -200 -100 0 -100 0 0 -200 0 -200 -100
0 -100 0 0 -200 0 -200 -100 0 -100 0 0 -500 0 -500 -100 0 -100 0 0 100 0
100 -300 0 -300 0 0 100 0 100 -200 0 -200 0 0 200 0 200 -100 0 -100 0 0 100
0 100 300 0 300 0 0 100 0 100 200 0 200 0 0 100 0 100 100 0 100 0 0 -100 0
-100 100 0 100 0 0 300 0 300 -400 0 -400 0 0 -200 0 -200 -400 0 -400 0 0
-100 0 -100 -200 0 -200 0 0 100 0 100 100 0 100 0 0 200 0 200 -100 0 -100 0
0 400 0 400 -200 0 -200 0 0 200 0 200 -100 0 -100 0 0 100 0 100 100 0 100 0
0 100 0 100 -400 0 -400 0 0 200 0 200 500 0 500 0 0 100 0 100 -100 0 -100 0
0 200 0 200 -100 0 -100 0 0 100 0 100 -100 0 -100 0 0 100 0 100 -100 0 -100
0 0 300 0 300 100 0 100 0 0 100 0 100 100 0 100 0 0 100 0 100 900 0 900 0 0
-100z m2000 -2600 l0 -100 -100 0 -100 0 0 -100 0 -100 -100 0 -100 0 0 200 0
200 200 0 200 0 0 -100z"/>
<path d="M3190 4310 l0 -100 200 0 200 0 0 -200 0 -200 -200 0 -200 0 0 -500
0 -500 400 0 400 0 0 100 0 100 100 0 100 0 0 100 0 100 100 0 100 0 0 300 0
300 -300 0 -300 0 0 100 0 100 100 0 100 0 0 100 0 100 -200 0 -200 0 0 100 0
100 -200 0 -200 0 0 -100z m800 -800 l0 -100 -100 0 -100 0 0 100 0 100 100 0
100 0 0 -100z"/>
<path d="M2790 3110 l0 -100 100 0 100 0 0 100 0 100 -100 0 -100 0 0 -100z"/>
</g>
</svg>
