<?xml version="1.0" standalone="no"?>
<!DOCTYPE svg PUBLIC "-//W3C//DTD SVG 20010904//EN"
 "http://www.w3.org/TR/2001/REC-SVG-20010904/DTD/svg10.dtd">
<svg version="1.0" xmlns="http://www.w3.org/2000/svg"
 width="260.000000pt" height="260.000000pt" viewBox="0 0 260.000000 260.000000"
 preserveAspectRatio="xMidYMid meet">
<metadata>
Created by potrace 1.11, written by Peter Selinger 2001-2013
</metadata>
<g transform="translate(0.000000,260.000000) scale(0.100000,-0.100000)"
fill="#000000" stroke="none">
<path d="M0 1300 l0 -1300 1300 0 1300 0 0 1300 0 1300 -1300 0 -1300 0 0
-1300z m1007 673 c28 -71 74 -184 103 -253 131 -318 480 -1180 480 -1187 0 -2
-53 -2 -117 -1 l-118 3 -91 230 -92 230 -328 0 -328 0 -86 -230 -86 -230 -107
-3 c-67 -2 -107 1 -107 7 0 9 160 437 305 816 23 61 92 241 153 401 61 160
117 303 123 318 12 26 13 26 129 26 l117 0 50 -127z"/>
<path d="M824 1874 c-18 -80 -55 -191 -141 -419 -51 -137 -93 -256 -93 -262 0
-10 58 -13 255 -13 140 0 255 2 255 4 0 2 -41 111 -91 243 -50 131 -108 289
-130 352 -21 63 -41 116 -44 119 -2 2 -7 -9 -11 -24z"/>
</g>
</svg>
